<svg xmlns="http://www.w3.org/2000/svg" version="1.1" xmlns:xlink="http://www.w3.org/1999/xlink" xmlns:svgjs="http://svgjs.dev/svgjs" width="1500" height="1500" viewBox="0 0 1500 1500"><rect width="1500" height="1500" fill="#000000"></rect><g transform="matrix(0.6666666666666666,0,0,0.6666666666666666,249.39393939393938,607.6288925700308)"><svg viewBox="0 0 396 112" data-background-color="#2f2a29" preserveAspectRatio="xMidYMid meet" height="424" width="1500" xmlns="http://www.w3.org/2000/svg" xmlns:xlink="http://www.w3.org/1999/xlink"><g id="tight-bounds" transform="matrix(1,0,0,1,0.2400000000000091,0.41119350998783943)"><svg viewBox="0 0 395.52 111.17761298002434" height="111.17761298002434" width="395.52"><g><svg viewBox="0 0 565.5000255818086 158.9576835162019" height="111.17761298002434" width="395.52"><g transform="matrix(1,0,0,1,0,44.882134866691295)"><svg viewBox="0 0 395.52 69.19341378281932" height="69.19341378281932" width="395.52"><g id="textblocktransform"><svg viewBox="0 0 395.52 69.19341378281932" height="69.19341378281932" width="395.52" id="textblock"><g><svg viewBox="0 0 395.52 46.689803561593536" height="46.689803561593536" width="395.52"><g transform="matrix(1,0,0,1,0,0)"><svg width="395.52" viewBox="3 -31.55 272.33 32.150000000000006" height="46.689803561593536" data-palette-color="#0074d9"><path d="M8.05 0.6L3 0.6 3-22.5 7.55-22.5 7.55-27 12.05-27 12.05-31.55 17.15-31.55 17.15-27 21.65-27 21.65-22.5 26.25-22.5 26.25 0.6 21.15 0.6 21.15-8.45 8.05-8.45 8.05 0.6ZM8.05-22L8.05-13.5 21.15-13.5 21.15-22 16.65-22 16.65-26.5 12.55-26.5 12.55-22 8.05-22ZM37.35 0.6L32.3 0.6 32.3-22.5 37.35-22.5 37.35 0.6ZM37.35-26.5L32.3-26.5 32.3-31.55 37.35-31.55 37.35-26.5ZM57.55 0.6L43.4 0.6 43.4-31.55 57.55-31.55 57.55-27 62.05-27 62.05-22.5 66.65-22.5 66.65-8.45 62.05-8.45 62.05-3.9 57.55-3.9 57.55 0.6ZM48.45-26.5L48.45-4.4 57.05-4.4 57.05-8.95 61.55-8.95 61.55-22 57.05-22 57.05-26.5 48.45-26.5ZM91.34 0.6L77.24 0.6 77.24-3.9 72.69-3.9 72.69-17.95 77.24-17.95 77.24-22.5 91.34-22.5 91.34-17.95 95.94-17.95 95.94-13 90.84-13 90.84-17.5 77.74-17.5 77.74-13.5 86.84-13.5 86.84-8.45 77.74-8.45 77.74-4.4 90.84-4.4 90.84-9 95.94-9 95.94-3.95 91.34-3.95 91.34 0.6ZM125.24 0.6L111.04 0.6 111.04-3.9 106.54-3.9 106.54-17.5 101.99-17.5 101.99-22.5 106.54-22.5 106.54-31.55 111.54-31.55 111.54-22.5 125.24-22.5 125.24-17.5 111.54-17.5 111.54-4.4 124.74-4.4 124.74-8.95 129.79-8.95 129.79-3.9 125.24-3.9 125.24 0.6ZM152.99 0.6L138.89 0.6 138.89-3.9 134.34-3.9 134.34-17.95 138.89-17.95 138.89-22.5 152.99-22.5 152.99-17.95 157.59-17.95 157.59-13 152.49-13 152.49-17.5 139.39-17.5 139.39-13.5 148.49-13.5 148.49-8.45 139.39-8.45 139.39-4.4 152.49-4.4 152.49-9 157.59-9 157.59-3.95 152.99-3.95 152.99 0.6ZM182.29 0.6L168.19 0.6 168.19-3.9 163.64-3.9 163.64-17.95 168.19-17.95 168.19-22.5 182.29-22.5 182.29-17.95 186.89-17.95 186.89-13 181.79-13 181.79-17.5 168.69-17.5 168.69-4.4 181.79-4.4 181.79-8.95 186.89-8.95 186.89-3.9 182.29-3.9 182.29 0.6ZM213.68 0.6L199.48 0.6 199.48-3.9 194.98-3.9 194.98-17.5 190.43-17.5 190.43-22.5 194.98-22.5 194.98-31.55 199.98-31.55 199.98-22.5 213.68-22.5 213.68-17.5 199.98-17.5 199.98-4.4 213.18-4.4 213.18-8.95 218.23-8.95 218.23-3.9 213.68-3.9 213.68 0.6ZM241.43 0.6L227.33 0.6 227.33-3.9 222.78-3.9 222.78-17.95 227.33-17.95 227.33-22.5 241.43-22.5 241.43-17.95 246.03-17.95 246.03-3.9 241.43-3.9 241.43 0.6ZM227.83-17.5L227.83-4.4 240.93-4.4 240.93-17.5 227.83-17.5ZM257.13 0.6L252.08 0.6 252.08-17.95 256.63-17.95 256.63-22.5 270.73-22.5 270.73-17.95 275.33-17.95 275.33-13 270.23-13 270.23-17.5 257.13-17.5 257.13 0.6Z" opacity="1" transform="matrix(1,0,0,1,0,0)" fill="#ffffff" class="wordmark-text-0" data-fill-palette-color="primary" id="text-0"></path></svg></g></svg></g><g transform="matrix(1,0,0,1,163.310208,57.71214562720029)"><svg viewBox="0 0 232.209792 11.481268155619029" height="11.481268155619029" width="232.209792"><g transform="matrix(1,0,0,1,0,0)"><svg width="232.209792" viewBox="-0.15 -37.85 1015.1899999999999 50.2" height="11.481268155619029" data-palette-color="#0074d9"><path d="M-0.15-13.5L-0.15-15.15 1.9-15.15Q3.7-15.15 4.58-16.23 5.45-17.3 5.45-19.3L5.45-19.3 5.45-28.6Q5.45-31.65 6.38-33.23 7.3-34.8 8.78-35.4 10.25-36 11.95-36.08 13.65-36.15 15.2-36.15L15.2-36.15 15.2-34.55Q13.9-34.55 12.6-34.13 11.3-33.7 10.45-32.73 9.6-31.75 9.6-30.05L9.6-30.05 9.6-19.95Q9.6-18.2 8.88-16.98 8.15-15.75 7.33-15.1 6.5-14.45 6.1-14.35L6.1-14.35Q6.5-14.3 7.33-13.63 8.15-12.95 8.88-11.73 9.6-10.5 9.6-8.75L9.6-8.75 9.6 1.35Q9.6 3 10.95 4.45 12.3 5.9 15.2 5.9L15.2 5.9 15.2 7.5Q14 7.6 12.38 7.5 10.75 7.4 9.15 6.75 7.55 6.1 6.5 4.48 5.45 2.85 5.45-0.05L5.45-0.05 5.45-9.35Q5.45-11.35 4.58-12.43 3.7-13.5 1.9-13.5L1.9-13.5-0.15-13.5ZM51-17.4L51-17.4Q51-12.6 48.97-8.65 46.95-4.7 43.05-2.35 39.15 0 33.55 0L33.55 0 18.8 0 18.8-1.75 23.55-3.2 23.55-31.8 18.8-32.75 19.3-35 33.55-35Q37.9-35 41.17-33.63 44.45-32.25 46.62-29.8 48.8-27.35 49.9-24.18 51-21 51-17.4ZM32.7-32.25L28.55-32.25 28.55-2.75 32.7-2.75Q38.9-2.75 42.32-6.7 45.75-10.65 45.75-17.4L45.75-17.4Q45.75-21.9 44.4-25.25 43.05-28.6 40.17-30.43 37.3-32.25 32.7-32.25L32.7-32.25ZM67.7-26.5L67.7-26.5Q71.09-26.5 73.57-25.38 76.05-24.25 77.7-22.35 79.34-20.45 80.15-18.07 80.95-15.7 80.95-13.2L80.95-13.2Q80.95-10.65 80.12-8.22 79.3-5.8 77.72-3.85 76.15-1.9 73.82-0.75 71.5 0.4 68.5 0.4L68.5 0.4Q65.15 0.4 62.65-0.73 60.15-1.85 58.5-3.75 56.85-5.65 56.05-8.03 55.25-10.4 55.25-12.9L55.25-12.9Q55.25-15.45 56.07-17.88 56.9-20.3 58.47-22.25 60.05-24.2 62.37-25.35 64.7-26.5 67.7-26.5ZM68.45-2.35L68.45-2.35Q71.15-2.35 72.8-3.85 74.45-5.35 75.2-7.7 75.95-10.05 75.95-12.65L75.95-12.65Q75.95-15.4 75.2-17.95 74.45-20.5 72.67-22.13 70.9-23.75 67.75-23.75L67.75-23.75Q65.09-23.75 63.42-22.25 61.75-20.75 61-18.4 60.25-16.05 60.25-13.45L60.25-13.45Q60.25-10.7 61-8.15 61.75-5.6 63.52-3.98 65.3-2.35 68.45-2.35ZM109.74-17.25L109.74-3.1 113.74-2.25 113.24 0 101.39 0 101.39-1.5 105.24-3 105.24-16.25Q105.24-18.75 104.72-20.08 104.19-21.4 103.12-21.88 102.04-22.35 100.44-22.35L100.44-22.35Q98.44-22.35 96.47-21.65 94.49-20.95 93.49-19.8L93.49-19.8 93.49-3.1 97.29-2.4 96.79 0 84.69 0 84.69-1.5 89.04-3 89.04-22.15 84.89-22.95 84.64-25.15 93.49-26.35 93.49-22.25Q95.19-24.3 97.64-25.38 100.09-26.45 102.14-26.45L102.14-26.45Q105.74-26.45 107.69-24.25 109.64-22.05 109.74-17.25L109.74-17.25ZM121.34-34.4L119.99-23.05 118.19-23.05 116.84-34.4Q117.09-34.9 117.67-35.55 118.24-36.2 119.09-36.45L119.09-36.45Q119.94-36.2 120.52-35.55 121.09-34.9 121.34-34.4L121.34-34.4ZM141.34-4.65L142.29-3.45Q141.14-1.65 138.94-0.53 136.74 0.6 134.49 0.6L134.49 0.6Q132.29 0.6 131.06-0.33 129.84-1.25 129.34-2.85 128.84-4.45 128.84-6.45L128.84-6.45 128.84-23.2 124.89-23.2 124.89-24.95 129.09-26.45 130.84-32 133.34-32 133.34-26 141.34-26 141.34-23.25 133.34-23.25 133.34-7.65Q133.34-4.9 133.84-3.9 134.34-2.9 136.24-2.9L136.24-2.9Q137.39-2.9 138.59-3.3 139.79-3.7 141.34-4.65L141.34-4.65ZM168.38-8.05L168.38-8.05Q167.58-8.05 166.78-8.13 165.98-8.2 165.18-8.4L165.18-8.4Q164.33-7.75 163.73-6.9 163.13-6.05 163.13-5.1L163.13-5.1Q163.13-4.25 163.93-3.68 164.73-3.1 166.38-3.05L166.38-3.05 175.78-3.05Q178.98-2.95 180.36-1.43 181.73 0.1 181.73 2.2L181.73 2.2Q181.73 4.6 180.41 6.5 179.08 8.4 176.91 9.7 174.73 11 172.08 11.68 169.43 12.35 166.78 12.35L166.78 12.35Q162.28 12.35 159.56 10.73 156.83 9.1 156.83 5.7L156.83 5.7Q156.83 3.8 158.01 2.38 159.18 0.95 161.18-0.35L161.18-0.35Q159.18-1.75 159.18-4.15L159.18-4.15Q159.18-5.45 160.11-6.85 161.03-8.25 162.73-9.25L162.73-9.25Q160.53-10.25 159.13-12.1 157.73-13.95 157.73-16.95L157.73-16.95Q157.73-20.35 159.18-22.45 160.63-24.55 163.06-25.53 165.48-26.5 168.33-26.5L168.33-26.5Q170.28-26.5 172.01-26 173.73-25.5 175.03-24.45L175.03-24.45Q175.73-24.45 177.13-24.53 178.53-24.6 179.98-24.7L179.98-24.7Q180.83-24.75 181.71-24.83 182.58-24.9 183.53-24.95L183.53-24.95 183.53-21.5 177.28-21.65Q177.78-20.65 177.98-19.48 178.18-18.3 178.18-16.95L178.18-16.95Q178.18-13.65 176.78-11.7 175.38-9.75 173.13-8.9 170.88-8.05 168.38-8.05ZM168.48-10.8L168.48-10.8Q170.98-10.8 172.08-12.55 173.18-14.3 173.18-16.95L173.18-16.95Q173.18-19.75 171.93-21.8 170.68-23.85 167.98-23.85L167.98-23.85Q165.38-23.85 164.03-21.95 162.68-20.05 162.68-17.1L162.68-17.1Q162.68-14.4 164.06-12.6 165.43-10.8 168.48-10.8ZM173.38 1.2L167.43 1.2Q164.88 1.2 163.08 0.55L163.08 0.55Q161.38 2.55 161.38 4.35L161.38 4.35Q161.38 7.25 163.51 8.35 165.63 9.45 168.93 9.45L168.93 9.45Q171.28 9.45 173.43 8.7 175.58 7.95 176.93 6.68 178.28 5.4 178.28 3.95L178.28 3.95Q178.28 2.5 177.28 1.85 176.28 1.2 173.38 1.2L173.38 1.2ZM208.28-13.4L190.53-13.4Q190.53-10.1 191.71-7.73 192.88-5.35 194.91-4.08 196.93-2.8 199.43-2.8L199.43-2.8Q202.98-2.8 206.78-5.25L206.78-5.25 207.88-3.35Q205.43-1.45 202.83-0.5 200.23 0.45 197.73 0.45L197.73 0.45Q194.43 0.45 191.66-1.13 188.88-2.7 187.21-5.75 185.53-8.8 185.53-13.1L185.53-13.1Q185.53-16.4 186.58-18.9 187.63-21.4 189.38-23.08 191.13-24.75 193.28-25.58 195.43-26.4 197.58-26.4L197.58-26.4Q200.93-26.4 203.03-25.28 205.13-24.15 206.28-22.25 207.43-20.35 207.86-18.05 208.28-15.75 208.28-13.4L208.28-13.4ZM190.68-16.1L203.28-16.1Q203.28-18.75 202.46-20.43 201.63-22.1 200.28-22.9 198.93-23.7 197.43-23.7L197.43-23.7Q195.88-23.7 194.36-22.83 192.83-21.95 191.81-20.25 190.78-18.55 190.68-16.1L190.68-16.1ZM227.63-4.65L228.58-3.45Q227.43-1.65 225.23-0.53 223.03 0.6 220.78 0.6L220.78 0.6Q218.58 0.6 217.35-0.33 216.13-1.25 215.63-2.85 215.13-4.45 215.13-6.45L215.13-6.45 215.13-23.2 211.18-23.2 211.18-24.95 215.38-26.45 217.13-32 219.63-32 219.63-26 227.63-26 227.63-23.25 219.63-23.25 219.63-7.65Q219.63-4.9 220.13-3.9 220.63-2.9 222.53-2.9L222.53-2.9Q223.68-2.9 224.88-3.3 226.08-3.7 227.63-4.65L227.63-4.65ZM256.22-37.85L256.22-37.85Q257.67-37.85 259.5-37.43 261.32-37 262.77-36.15L262.77-36.15 262.77-29.5 260.27-29 258.87-34.5Q258.27-34.8 257.55-34.95 256.82-35.1 256.22-35.1L256.22-35.1Q253.97-35.1 252.92-33.75 251.87-32.4 251.87-28.75L251.87-28.75 251.87-26 258.52-26 258.52-23.25 251.87-23.25 251.87-3.1 257.42-2.4 256.92 0 243.02 0 243.02-1.5 247.37-3 247.37-23.25 243.02-23.25 243.02-26 247.37-26 247.42-28.8Q247.42-32.15 248.75-34.13 250.07-36.1 252.1-36.98 254.12-37.85 256.22-37.85ZM270.17-26.5L270.17-26.5Q273.57-26.5 276.05-25.38 278.52-24.25 280.17-22.35 281.82-20.45 282.62-18.07 283.42-15.7 283.42-13.2L283.42-13.2Q283.42-10.65 282.6-8.22 281.77-5.8 280.2-3.85 278.62-1.9 276.3-0.75 273.97 0.4 270.97 0.4L270.97 0.4Q267.62 0.4 265.12-0.73 262.62-1.85 260.97-3.75 259.32-5.65 258.52-8.03 257.72-10.4 257.72-12.9L257.72-12.9Q257.72-15.45 258.55-17.88 259.37-20.3 260.95-22.25 262.52-24.2 264.85-25.35 267.17-26.5 270.17-26.5ZM270.92-2.35L270.92-2.35Q273.62-2.35 275.27-3.85 276.92-5.35 277.67-7.7 278.42-10.05 278.42-12.65L278.42-12.65Q278.42-15.4 277.67-17.95 276.92-20.5 275.15-22.13 273.37-23.75 270.22-23.75L270.22-23.75Q267.57-23.75 265.9-22.25 264.22-20.75 263.47-18.4 262.72-16.05 262.72-13.45L262.72-13.45Q262.72-10.7 263.47-8.15 264.22-5.6 266-3.98 267.77-2.35 270.92-2.35ZM300.87-26.5L300.87-26.5Q304.27-26.5 306.74-25.38 309.22-24.25 310.87-22.35 312.52-20.45 313.32-18.07 314.12-15.7 314.12-13.2L314.12-13.2Q314.12-10.65 313.29-8.22 312.47-5.8 310.89-3.85 309.32-1.9 306.99-0.75 304.67 0.4 301.67 0.4L301.67 0.4Q298.32 0.4 295.82-0.73 293.32-1.85 291.67-3.75 290.02-5.65 289.22-8.03 288.42-10.4 288.42-12.9L288.42-12.9Q288.42-15.45 289.24-17.88 290.07-20.3 291.64-22.25 293.22-24.2 295.54-25.35 297.87-26.5 300.87-26.5ZM301.62-2.35L301.62-2.35Q304.32-2.35 305.97-3.85 307.62-5.35 308.37-7.7 309.12-10.05 309.12-12.65L309.12-12.65Q309.12-15.4 308.37-17.95 307.62-20.5 305.84-22.13 304.07-23.75 300.92-23.75L300.92-23.75Q298.27-23.75 296.59-22.25 294.92-20.75 294.17-18.4 293.42-16.05 293.42-13.45L293.42-13.45Q293.42-10.7 294.17-8.15 294.92-5.6 296.69-3.98 298.47-2.35 301.62-2.35ZM325.02-37.5L325.02-3.1 329.27-2.4 328.77 0 316.12 0 316.12-1.5 320.52-3 320.52-33.5 316.47-34.25 316.22-36.3 325.02-37.5ZM354.31-13.4L336.56-13.4Q336.56-10.1 337.74-7.73 338.91-5.35 340.94-4.08 342.96-2.8 345.46-2.8L345.46-2.8Q349.01-2.8 352.81-5.25L352.81-5.25 353.91-3.35Q351.46-1.45 348.86-0.5 346.26 0.45 343.76 0.45L343.76 0.45Q340.46 0.45 337.69-1.13 334.91-2.7 333.24-5.75 331.56-8.8 331.56-13.1L331.56-13.1Q331.56-16.4 332.61-18.9 333.66-21.4 335.41-23.08 337.16-24.75 339.31-25.58 341.46-26.4 343.61-26.4L343.61-26.4Q346.96-26.4 349.06-25.28 351.16-24.15 352.31-22.25 353.46-20.35 353.89-18.05 354.31-15.75 354.31-13.4L354.31-13.4ZM336.71-16.1L349.31-16.1Q349.31-18.75 348.49-20.43 347.66-22.1 346.31-22.9 344.96-23.7 343.46-23.7L343.46-23.7Q341.91-23.7 340.39-22.83 338.86-21.95 337.84-20.25 336.81-18.55 336.71-16.1L336.71-16.1ZM376.91 0L376.91-2.85Q375.21-1.3 373.34-0.45 371.46 0.4 369.11 0.4L369.11 0.4Q366.36 0.4 363.86-1.15 361.36-2.7 359.81-5.53 358.26-8.35 358.26-12.15L358.26-12.15Q358.26-15.4 359.34-17.98 360.41-20.55 362.21-22.38 364.01-24.2 366.31-25.18 368.61-26.15 371.01-26.15L371.01-26.15Q372.51-26.15 374.01-25.73 375.51-25.3 376.91-24.45L376.91-24.45 376.91-33.3 372.76-34.1 372.51-36.3 381.36-37.5 381.36-3.15 384.76-2.3 384.26 0 376.91 0ZM370.06-2.9L370.06-2.9Q371.66-2.9 373.51-3.73 375.36-4.55 376.91-5.9L376.91-5.9 376.91-20.75Q375.61-22.1 374.19-22.73 372.76-23.35 371.36-23.35L371.36-23.35Q369.26-23.35 367.41-22.05 365.56-20.75 364.41-18.48 363.26-16.2 363.26-13.2L363.26-13.2Q363.26-10.4 363.96-8.05 364.66-5.7 366.16-4.3 367.66-2.9 370.06-2.9ZM432.46-23.1L429.01-23.6 429.51-26 439.06-26 439.06-24.5 435.26-23 429.06 0 426.26 0 419.21-18.35 413.31 0 410.61 0 401.86-23.1 398.21-23.75 398.71-26 410.16-26 410.16-24.5 406.26-23.25 412.61-6.8 418.76-26 420.81-26 428.11-7 432.46-23.1ZM444.05-33.65L444.05-33.65Q445.35-35.85 447.55-37.1L447.55-37.1Q449.75-35.95 450.9-33.75L450.9-33.75Q449.65-31.6 447.4-30.3L447.4-30.3Q445.2-31.45 444.05-33.65ZM450.2-26.35L450.2-3.1 453.95-2.4 453.45 0 441.3 0 441.3-1.5 445.7-3 445.7-22.35 441.65-23.1 441.4-25.15 450.2-26.35ZM472.55-4.65L473.5-3.45Q472.35-1.65 470.15-0.53 467.95 0.6 465.7 0.6L465.7 0.6Q463.5 0.6 462.28-0.33 461.05-1.25 460.55-2.85 460.05-4.45 460.05-6.45L460.05-6.45 460.05-23.2 456.1-23.2 456.1-24.95 460.3-26.45 462.05-32 464.55-32 464.55-26 472.55-26 472.55-23.25 464.55-23.25 464.55-7.65Q464.55-4.9 465.05-3.9 465.55-2.9 467.45-2.9L467.45-2.9Q468.6-2.9 469.8-3.3 471-3.7 472.55-4.65L472.55-4.65ZM483.55-37.5L483.55-22.25Q485.25-24.3 487.7-25.38 490.15-26.45 492.2-26.45L492.2-26.45Q495.8-26.45 497.77-24.25 499.75-22.05 499.75-17.25L499.75-17.25 499.8-3.1 503.8-2.25 503.3 0 491.45 0 491.45-1.5 495.3-3 495.3-16.25Q495.3-18.75 494.77-20.08 494.25-21.4 493.17-21.88 492.1-22.35 490.5-22.35L490.5-22.35Q488.5-22.35 486.52-21.65 484.55-20.95 483.55-19.8L483.55-19.8 483.55-3.1 487.3-2.4 486.8 0 474.65 0 474.65-1.5 479.05-3 479.05-33.45 474.9-34.25 474.65-36.3 483.55-37.5ZM547.49-3.1L550.99-2.25 550.49 0 538.99 0 538.99-1.75 542.54-2.85 539.34-11 525.59-11 522.54-3 526.59-2.25 526.09 0 516.04 0 516.04-1.75 519.59-3 531.64-35 535.29-35 547.49-3.1ZM532.44-29.2L526.59-13.75 538.34-13.75 532.44-29.2ZM554.34-33.65L554.34-33.65Q555.64-35.85 557.84-37.1L557.84-37.1Q560.04-35.95 561.19-33.75L561.19-33.75Q559.94-31.6 557.69-30.3L557.69-30.3Q555.49-31.45 554.34-33.65ZM560.49-26.35L560.49-3.1 564.24-2.4 563.74 0 551.59 0 551.59-1.5 555.99-3 555.99-22.35 551.94-23.1 551.69-25.15 560.49-26.35ZM591.03-8.05L591.03-8.05Q590.23-8.05 589.43-8.13 588.63-8.2 587.83-8.4L587.83-8.4Q586.98-7.75 586.38-6.9 585.78-6.05 585.78-5.1L585.78-5.1Q585.78-4.25 586.58-3.68 587.38-3.1 589.03-3.05L589.03-3.05 598.43-3.05Q601.63-2.95 603.01-1.43 604.38 0.1 604.38 2.2L604.38 2.2Q604.38 4.6 603.06 6.5 601.73 8.4 599.56 9.7 597.38 11 594.73 11.68 592.08 12.35 589.43 12.35L589.43 12.35Q584.93 12.35 582.21 10.73 579.48 9.1 579.48 5.7L579.48 5.7Q579.48 3.8 580.66 2.38 581.83 0.95 583.83-0.35L583.83-0.35Q581.83-1.75 581.83-4.15L581.83-4.15Q581.83-5.45 582.76-6.85 583.68-8.25 585.38-9.25L585.38-9.25Q583.18-10.25 581.78-12.1 580.38-13.95 580.38-16.95L580.38-16.95Q580.38-20.35 581.83-22.45 583.28-24.55 585.71-25.53 588.13-26.5 590.98-26.5L590.98-26.5Q592.93-26.5 594.66-26 596.38-25.5 597.68-24.45L597.68-24.45Q598.38-24.45 599.78-24.53 601.18-24.6 602.63-24.7L602.63-24.7Q603.48-24.75 604.36-24.83 605.23-24.9 606.18-24.95L606.18-24.95 606.18-21.5 599.93-21.65Q600.43-20.65 600.63-19.48 600.83-18.3 600.83-16.95L600.83-16.95Q600.83-13.65 599.43-11.7 598.03-9.75 595.78-8.9 593.53-8.05 591.03-8.05ZM591.13-10.8L591.13-10.8Q593.63-10.8 594.73-12.55 595.83-14.3 595.83-16.95L595.83-16.95Q595.83-19.75 594.58-21.8 593.33-23.85 590.63-23.85L590.63-23.85Q588.03-23.85 586.68-21.95 585.33-20.05 585.33-17.1L585.33-17.1Q585.33-14.4 586.71-12.6 588.08-10.8 591.13-10.8ZM596.03 1.2L590.08 1.2Q587.53 1.2 585.73 0.55L585.73 0.55Q584.03 2.55 584.03 4.35L584.03 4.35Q584.03 7.25 586.16 8.35 588.28 9.45 591.58 9.45L591.58 9.45Q593.93 9.45 596.08 8.7 598.23 7.95 599.58 6.68 600.93 5.4 600.93 3.95L600.93 3.95Q600.93 2.5 599.93 1.85 598.93 1.2 596.03 1.2L596.03 1.2ZM630.93-13.4L613.18-13.4Q613.18-10.1 614.36-7.73 615.53-5.35 617.56-4.08 619.58-2.8 622.08-2.8L622.08-2.8Q625.63-2.8 629.43-5.25L629.43-5.25 630.53-3.35Q628.08-1.45 625.48-0.5 622.88 0.45 620.38 0.45L620.38 0.45Q617.08 0.45 614.31-1.13 611.53-2.7 609.86-5.75 608.18-8.8 608.18-13.1L608.18-13.1Q608.18-16.4 609.23-18.9 610.28-21.4 612.03-23.08 613.78-24.75 615.93-25.58 618.08-26.4 620.23-26.4L620.23-26.4Q623.58-26.4 625.68-25.28 627.78-24.15 628.93-22.25 630.08-20.35 630.51-18.05 630.93-15.75 630.93-13.4L630.93-13.4ZM613.33-16.1L625.93-16.1Q625.93-18.75 625.11-20.43 624.28-22.1 622.93-22.9 621.58-23.7 620.08-23.7L620.08-23.7Q618.53-23.7 617.01-22.83 615.48-21.95 614.46-20.25 613.43-18.55 613.33-16.1L613.33-16.1ZM658.58-17.25L658.58-3.1 662.58-2.25 662.08 0 650.23 0 650.23-1.5 654.08-3 654.08-16.25Q654.08-18.75 653.55-20.08 653.03-21.4 651.95-21.88 650.88-22.35 649.28-22.35L649.28-22.35Q647.28-22.35 645.3-21.65 643.33-20.95 642.33-19.8L642.33-19.8 642.33-3.1 646.13-2.4 645.63 0 633.53 0 633.53-1.5 637.88-3 637.88-22.15 633.73-22.95 633.48-25.15 642.33-26.35 642.33-22.25Q644.03-24.3 646.48-25.38 648.93-26.45 650.98-26.45L650.98-26.45Q654.58-26.45 656.53-24.25 658.48-22.05 658.58-17.25L658.58-17.25ZM686.93-13.4L669.18-13.4Q669.18-10.1 670.35-7.73 671.53-5.35 673.55-4.08 675.58-2.8 678.08-2.8L678.08-2.8Q681.63-2.8 685.43-5.25L685.43-5.25 686.53-3.35Q684.08-1.45 681.48-0.5 678.88 0.45 676.38 0.45L676.38 0.45Q673.08 0.45 670.3-1.13 667.53-2.7 665.85-5.75 664.18-8.8 664.18-13.1L664.18-13.1Q664.18-16.4 665.23-18.9 666.28-21.4 668.03-23.08 669.78-24.75 671.93-25.58 674.08-26.4 676.23-26.4L676.23-26.4Q679.58-26.4 681.68-25.28 683.78-24.15 684.93-22.25 686.08-20.35 686.5-18.05 686.93-15.75 686.93-13.4L686.93-13.4ZM669.33-16.1L681.93-16.1Q681.93-18.75 681.1-20.43 680.28-22.1 678.93-22.9 677.58-23.7 676.08-23.7L676.08-23.7Q674.53-23.7 673-22.83 671.48-21.95 670.45-20.25 669.43-18.55 669.33-16.1L669.33-16.1ZM709.02-25.65L709.02-18.95 706.42-18.5 705.07-22.3Q704.87-22.35 704.57-22.35 704.27-22.35 704.07-22.35L704.07-22.35Q702.47-22.35 700.72-21.65 698.97-20.95 697.97-19.8L697.97-19.8 697.97-3.1 702.57-2.4 702.07 0 689.17 0 689.17-1.5 693.52-3 693.52-22.15 689.37-22.95 689.12-25.15 697.97-26.35 697.97-22.25Q699.67-24.05 701.6-25.2 703.52-26.35 705.72-26.35L705.72-26.35Q707.37-26.35 709.02-25.65L709.02-25.65ZM734.32 0L726.72 0 726.72-4.05Q725.72-2.85 724.2-1.85 722.67-0.85 721-0.23 719.32 0.4 717.87 0.4L717.87 0.4Q715.22 0.4 713.22-1.3 711.22-3 711.22-6.15L711.22-6.15Q711.22-8.65 712.5-10.23 713.77-11.8 717.02-12.65L717.02-12.65Q719.47-13.3 721.75-13.73 724.02-14.15 726.72-14.45L726.72-14.45 726.72-18.55Q726.72-21.35 725.22-22.53 723.72-23.7 721.62-23.7L721.62-23.7Q720.47-23.7 719.27-23.55 718.07-23.4 716.92-23L716.92-23 715.52-17.3 712.92-17.75 712.92-24.25Q714.87-25.1 717.1-25.78 719.32-26.45 721.87-26.45L721.87-26.45Q724.47-26.45 726.6-25.73 728.72-25 729.97-23.25 731.22-21.5 731.22-18.5L731.22-18.5 731.22-3.15 734.82-2.3 734.32 0ZM716.22-6.55L716.22-6.55Q716.22-4.2 717.35-3.48 718.47-2.75 719.97-2.75L719.97-2.75Q721.17-2.75 722.52-3.35 723.87-3.95 725-4.88 726.12-5.8 726.72-6.65L726.72-6.65 726.72-12.35Q725.12-12.15 723.52-11.93 721.92-11.7 720.32-11.25L720.32-11.25Q717.97-10.6 717.1-9.35 716.22-8.1 716.22-6.55ZM751.72-4.65L752.67-3.45Q751.52-1.65 749.32-0.53 747.12 0.6 744.87 0.6L744.87 0.6Q742.67 0.6 741.44-0.33 740.22-1.25 739.72-2.85 739.22-4.45 739.22-6.45L739.22-6.45 739.22-23.2 735.27-23.2 735.27-24.95 739.47-26.45 741.22-32 743.72-32 743.72-26 751.72-26 751.72-23.25 743.72-23.25 743.72-7.65Q743.72-4.9 744.22-3.9 744.72-2.9 746.62-2.9L746.62-2.9Q747.77-2.9 748.97-3.3 750.17-3.7 751.72-4.65L751.72-4.65ZM776.97-13.4L759.22-13.4Q759.22-10.1 760.39-7.73 761.57-5.35 763.59-4.08 765.62-2.8 768.12-2.8L768.12-2.8Q771.67-2.8 775.47-5.25L775.47-5.25 776.57-3.35Q774.12-1.45 771.52-0.5 768.92 0.45 766.42 0.45L766.42 0.45Q763.12 0.45 760.34-1.13 757.57-2.7 755.89-5.75 754.22-8.8 754.22-13.1L754.22-13.1Q754.22-16.4 755.27-18.9 756.32-21.4 758.07-23.08 759.82-24.75 761.97-25.58 764.12-26.4 766.27-26.4L766.27-26.4Q769.62-26.4 771.72-25.28 773.82-24.15 774.97-22.25 776.12-20.35 776.54-18.05 776.97-15.75 776.97-13.4L776.97-13.4ZM759.37-16.1L771.97-16.1Q771.97-18.75 771.14-20.43 770.32-22.1 768.97-22.9 767.62-23.7 766.12-23.7L766.12-23.7Q764.57-23.7 763.04-22.83 761.52-21.95 760.49-20.25 759.47-18.55 759.37-16.1L759.37-16.1ZM799.56 0L799.56-2.85Q797.86-1.3 795.99-0.45 794.11 0.4 791.76 0.4L791.76 0.4Q789.01 0.4 786.51-1.15 784.01-2.7 782.46-5.53 780.91-8.35 780.91-12.15L780.91-12.15Q780.91-15.4 781.99-17.98 783.06-20.55 784.86-22.38 786.66-24.2 788.96-25.18 791.26-26.15 793.66-26.15L793.66-26.15Q795.16-26.15 796.66-25.73 798.16-25.3 799.56-24.45L799.56-24.45 799.56-33.3 795.41-34.1 795.16-36.3 804.01-37.5 804.01-3.15 807.41-2.3 806.91 0 799.56 0ZM792.71-2.9L792.71-2.9Q794.31-2.9 796.16-3.73 798.01-4.55 799.56-5.9L799.56-5.9 799.56-20.75Q798.26-22.1 796.84-22.73 795.41-23.35 794.01-23.35L794.01-23.35Q791.91-23.35 790.06-22.05 788.21-20.75 787.06-18.48 785.91-16.2 785.91-13.2L785.91-13.2Q785.91-10.4 786.61-8.05 787.31-5.7 788.81-4.3 790.31-2.9 792.71-2.9ZM841.91-16.95L840.51-22.85Q838.26-23.7 836.61-23.7L836.61-23.7Q834.11-23.7 832.21-22.33 830.31-20.95 829.23-18.63 828.16-16.3 828.16-13.35L828.16-13.35Q828.16-10.7 829.06-8.25 829.96-5.8 831.86-4.28 833.76-2.75 836.66-2.75L836.66-2.75Q838.36-2.75 840.38-3.4 842.41-4.05 843.96-5.2L843.96-5.2 845.06-3.3Q843.06-1.4 840.66-0.43 838.26 0.55 835.71 0.55L835.71 0.55Q832.31 0.55 829.46-1.03 826.61-2.6 824.88-5.65 823.16-8.7 823.16-13L823.16-13Q823.16-17.3 825.06-20.3 826.96-23.3 830.01-24.88 833.06-26.45 836.46-26.45L836.46-26.45Q840.66-26.45 844.41-24.1L844.41-24.1 844.41-17.45 841.91-16.95ZM861.46-26.5L861.46-26.5Q864.86-26.5 867.33-25.38 869.81-24.25 871.46-22.35 873.11-20.45 873.91-18.07 874.71-15.7 874.71-13.2L874.71-13.2Q874.71-10.65 873.88-8.22 873.06-5.8 871.48-3.85 869.91-1.9 867.58-0.75 865.26 0.4 862.26 0.4L862.26 0.4Q858.91 0.4 856.41-0.73 853.91-1.85 852.26-3.75 850.61-5.65 849.81-8.03 849.01-10.4 849.01-12.9L849.01-12.9Q849.01-15.45 849.83-17.88 850.66-20.3 852.23-22.25 853.81-24.2 856.13-25.35 858.46-26.5 861.46-26.5ZM862.21-2.35L862.21-2.35Q864.91-2.35 866.56-3.85 868.21-5.35 868.96-7.7 869.71-10.05 869.71-12.65L869.71-12.65Q869.71-15.4 868.96-17.95 868.21-20.5 866.43-22.13 864.66-23.75 861.51-23.75L861.51-23.75Q858.86-23.75 857.18-22.25 855.51-20.75 854.76-18.4 854.01-16.05 854.01-13.45L854.01-13.45Q854.01-10.7 854.76-8.15 855.51-5.6 857.28-3.98 859.06-2.35 862.21-2.35ZM903.5-17.25L903.5-3.1 907.5-2.25 907 0 895.15 0 895.15-1.5 899-3 899-16.25Q899-18.75 898.48-20.08 897.95-21.4 896.88-21.88 895.8-22.35 894.2-22.35L894.2-22.35Q892.2-22.35 890.23-21.65 888.25-20.95 887.25-19.8L887.25-19.8 887.25-3.1 891.05-2.4 890.55 0 878.45 0 878.45-1.5 882.8-3 882.8-22.15 878.65-22.95 878.4-25.15 887.25-26.35 887.25-22.25Q888.95-24.3 891.4-25.38 893.85-26.45 895.9-26.45L895.9-26.45Q899.5-26.45 901.45-24.25 903.4-22.05 903.5-17.25L903.5-17.25ZM924.15-4.65L925.1-3.45Q923.95-1.65 921.75-0.53 919.55 0.6 917.3 0.6L917.3 0.6Q915.1 0.6 913.88-0.33 912.65-1.25 912.15-2.85 911.65-4.45 911.65-6.45L911.65-6.45 911.65-23.2 907.7-23.2 907.7-24.95 911.9-26.45 913.65-32 916.15-32 916.15-26 924.15-26 924.15-23.25 916.15-23.25 916.15-7.65Q916.15-4.9 916.65-3.9 917.15-2.9 919.05-2.9L919.05-2.9Q920.2-2.9 921.4-3.3 922.6-3.7 924.15-4.65L924.15-4.65ZM949.4-13.4L931.65-13.4Q931.65-10.1 932.82-7.73 934-5.35 936.02-4.08 938.05-2.8 940.55-2.8L940.55-2.8Q944.1-2.8 947.9-5.25L947.9-5.25 949-3.35Q946.55-1.45 943.95-0.5 941.35 0.45 938.85 0.45L938.85 0.45Q935.55 0.45 932.77-1.13 930-2.7 928.32-5.75 926.65-8.8 926.65-13.1L926.65-13.1Q926.65-16.4 927.7-18.9 928.75-21.4 930.5-23.08 932.25-24.75 934.4-25.58 936.55-26.4 938.7-26.4L938.7-26.4Q942.05-26.4 944.15-25.28 946.25-24.15 947.4-22.25 948.55-20.35 948.97-18.05 949.4-15.75 949.4-13.4L949.4-13.4ZM931.8-16.1L944.4-16.1Q944.4-18.75 943.57-20.43 942.75-22.1 941.4-22.9 940.05-23.7 938.55-23.7L938.55-23.7Q937-23.7 935.47-22.83 933.95-21.95 932.92-20.25 931.9-18.55 931.8-16.1L931.8-16.1ZM977.05-17.25L977.05-3.1 981.05-2.25 980.55 0 968.7 0 968.7-1.5 972.55-3 972.55-16.25Q972.55-18.75 972.02-20.08 971.5-21.4 970.42-21.88 969.35-22.35 967.75-22.35L967.75-22.35Q965.75-22.35 963.77-21.65 961.8-20.95 960.8-19.8L960.8-19.8 960.8-3.1 964.6-2.4 964.1 0 952 0 952-1.5 956.35-3 956.35-22.15 952.2-22.95 951.95-25.15 960.8-26.35 960.8-22.25Q962.5-24.3 964.95-25.38 967.4-26.45 969.45-26.45L969.45-26.45Q973.05-26.45 975-24.25 976.95-22.05 977.05-17.25L977.05-17.25ZM997.69-4.65L998.64-3.45Q997.49-1.65 995.29-0.53 993.09 0.6 990.84 0.6L990.84 0.6Q988.64 0.6 987.42-0.33 986.19-1.25 985.69-2.85 985.19-4.45 985.19-6.45L985.19-6.45 985.19-23.2 981.24-23.2 981.24-24.95 985.44-26.45 987.19-32 989.69-32 989.69-26 997.69-26 997.69-23.25 989.69-23.25 989.69-7.65Q989.69-4.9 990.19-3.9 990.69-2.9 992.59-2.9L992.59-2.9Q993.74-2.9 994.94-3.3 996.14-3.7 997.69-4.65L997.69-4.65ZM1015.04-15.15L1015.04-13.5 1012.99-13.5Q1011.19-13.5 1010.32-12.43 1009.44-11.35 1009.44-9.35L1009.44-9.35 1009.44-0.05Q1009.44 2.85 1008.39 4.48 1007.34 6.1 1005.74 6.75 1004.14 7.4 1002.52 7.5 1000.89 7.6 999.69 7.5L999.69 7.5 999.69 5.9Q1002.59 5.9 1003.94 4.45 1005.29 3 1005.29 1.35L1005.29 1.35 1005.29-8.75Q1005.29-10.5 1006.02-11.73 1006.74-12.95 1007.59-13.63 1008.44-14.3 1008.79-14.35L1008.79-14.35Q1008.44-14.45 1007.59-15.1 1006.74-15.75 1006.02-16.98 1005.29-18.2 1005.29-19.95L1005.29-19.95 1005.29-30.05Q1005.29-31.75 1004.44-32.73 1003.59-33.7 1002.29-34.13 1000.99-34.55 999.69-34.55L999.69-34.55 999.69-36.15Q1001.24-36.15 1002.94-36.08 1004.64-36 1006.12-35.4 1007.59-34.8 1008.52-33.23 1009.44-31.65 1009.44-28.6L1009.44-28.6 1009.44-19.3Q1009.44-17.3 1010.32-16.23 1011.19-15.15 1012.99-15.15L1012.99-15.15 1015.04-15.15Z" opacity="1" transform="matrix(1,0,0,1,0,0)" fill="#ffffff" class="slogan-text-1" data-fill-palette-color="secondary" id="text-1"></path></svg></g></svg></g></svg></g></svg></g><g transform="matrix(1,0,0,1,406.54234206560676,0)"><svg viewBox="0 0 158.9576835162019 158.9576835162019" height="158.9576835162019" width="158.9576835162019"><g><svg></svg></g><g id="icon-0"><svg viewBox="0 0 158.9576835162019 158.9576835162019" height="158.9576835162019" width="158.9576835162019"><g><rect width="144.53374556750953" height="144.53374556750953" x="7.211968974346192" y="7.211968974346192" fill="#ffffff" data-fill-palette-color="accent"></rect><rect width="144.53374556750953" height="144.53374556750953" x="-5.329070518200751e-15" y="-5.329070518200751e-15" fill="#ffffff" opacity="0.5" data-fill-palette-color="accent"></rect></g><g transform="matrix(1,0,0,1,38.07877651565955,20.605625640989132)"><svg viewBox="0 0 82.80013048488281 117.74643223422365" height="117.74643223422365" width="82.80013048488281"><g><svg xmlns="http://www.w3.org/2000/svg" xmlns:xlink="http://www.w3.org/1999/xlink" version="1.1" x="0" y="0" viewBox="15.138 1.6836224122583272 67.56299999999999 96.07837758774167" enable-background="new 0 0 100 100" xml:space="preserve" height="117.74643223422365" width="82.80013048488281" class="icon-dxe-0" data-fill-palette-color="quaternary" id="dxe-0"><g fill="#2f2a29" data-fill-palette-color="quaternary"><path d="M50.658 17.943A3.502 3.502 0 1 0 57.662 17.943 3.502 3.502 0 0 0 50.658 17.943M40.404 26.125C40.404 27.409 41.501 28.45 42.854 28.45H54.062C55.414 28.45 56.511 27.409 56.511 26.125S55.413 23.8 54.062 23.8H42.854C41.501 23.8 40.404 24.841 40.404 26.125M39.296 17.943A3.502 3.502 0 1 0 46.301 17.943 3.502 3.502 0 0 0 39.296 17.942M39.282 36.843V43.368C39.282 44.044 39.83 44.592 40.506 44.592H45.342A3.08 3.08 0 0 1 49.598 42.053L52.731 38.443C53.266 37.826 54.192 38.629 53.656 39.246L50.616 42.748C51.09 43.235 51.404 43.878 51.473 44.592H56.383C57.059 44.592 57.608 44.044 57.608 43.368V36.843C57.608 36.167 57.059 35.618 56.383 35.618H40.506C39.83 35.618 39.282 36.167 39.282 36.843M46.205 5.277C46.205 6.3 46.872 7.168 47.794 7.469V7.351C47.794 6.923 48.129 6.706 48.439 6.706S49.083 6.923 49.083 7.351V7.512A2.307 2.307 0 1 0 46.205 5.277M27.612 59.116L26.488 59.355 25.237 53.468A2.416 2.416 0 0 0 22.37 51.605L21.94 51.697A2.415 2.415 0 0 0 20.079 54.563L21.33 60.451 20.205 60.69 17.671 57.877 15.138 55.063 16.308 51.461 17.478 47.86 18.243 47.697C18.016 46.554 18.023 45.45 18.149 44.426 18.953 37.879 25.119 33.902 31.773 33.048A2.45 2.45 0 0 1 33.724 32.08H43.238V30.861H39.407A2.275 2.275 0 0 1 37.133 28.586V24.728H35.78A1.226 1.226 0 0 1 34.555 23.503V18.549C34.555 17.873 35.103 17.324 35.78 17.324H37.132V12.466A2.275 2.275 0 0 1 39.406 10.192H47.795V8.801A3.595 3.595 0 1 1 49.085 8.828V10.192H57.5A2.275 2.275 0 0 1 59.775 12.466V17.324H61.109C61.787 17.324 62.336 17.872 62.336 18.549V23.503C62.336 24.179 61.787 24.728 61.109 24.728H59.775V28.586A2.276 2.276 0 0 1 57.5 30.861H53.699V32.08H63.211C64.074 32.08 64.834 32.528 65.27 33.204 70.356 32.603 73.291 29.765 73.613 27.142A4.2 4.2 0 0 0 73.605 25.89L72.954 26.029 70.421 23.215 67.886 20.4 69.055 16.799 70.227 13.198 71.352 12.959 72.602 18.846A2.416 2.416 0 0 0 75.469 20.707L75.899 20.616A2.415 2.415 0 0 0 77.76 17.749L76.51 11.862 77.633 11.623 80.166 14.437 82.701 17.251 81.531 20.852 80.359 24.453 79.595 24.616C79.822 25.758 79.814 26.862 79.689 27.887 78.869 34.566 72.466 38.571 65.659 39.313V61.26A2.45 2.45 0 0 1 63.211 63.707H62.738V89.25H63.916V95.583H65.252V97.762H49.326V95.583H50.728V89.25H52.249V63.707H44.604V89.25H45.782V95.583H47.119V97.762H31.192V95.583H32.595V89.25H34.116V63.707H33.723A2.45 2.45 0 0 1 31.274 61.26V39.32C26.985 40.21 24.52 42.78 24.226 45.172 24.165 45.662 24.173 46.07 24.234 46.424L24.886 46.286 27.419 49.1 29.953 51.912 28.784 55.515z" fill="#000000" data-fill-palette-color="quaternary"></path></g></svg></g></svg></g></svg></g></svg></g></svg></g><defs></defs></svg><rect width="395.52" height="111.17761298002434" fill="none" stroke="none" visibility="hidden"></rect></g></svg></g></svg>